<svg id="visual" viewBox="0 0 900 600" width="900" height="600" xmlns="http://www.w3.org/2000/svg" xmlns:xlink="http://www.w3.org/1999/xlink" version="1.1"><rect x="0" y="0" width="900" height="600" fill="#001122"></rect><defs><linearGradient id="grad1_0" x1="33.3%" y1="0%" x2="100%" y2="100%"><stop offset="20%" stop-color="#001122" stop-opacity="1"></stop><stop offset="80%" stop-color="#001122" stop-opacity="1"></stop></linearGradient></defs><defs><linearGradient id="grad2_0" x1="0%" y1="0%" x2="66.7%" y2="100%"><stop offset="20%" stop-color="#001122" stop-opacity="1"></stop><stop offset="80%" stop-color="#001122" stop-opacity="1"></stop></linearGradient></defs><g transform="translate(900, 0)"><path d="M0 243.4C-17.7 242 -35.4 240.6 -54.2 237.3C-72.9 234 -92.7 228.8 -101.5 210.8C-110.4 192.8 -108.3 162 -117.8 147.8C-127.4 133.5 -148.7 135.9 -161.1 128.4C-173.4 121 -176.9 103.8 -186.5 89.8C-196.1 75.9 -211.8 65.2 -222.3 50.7C-232.8 36.3 -238.1 18.2 -243.4 0L0 0Z" fill="#FBAE3C"></path></g><g transform="translate(0, 600)"><path d="M0 -243.4C15.5 -231.1 31 -218.8 49.6 -217.4C68.2 -216.1 90 -225.7 105.6 -219.3C121.2 -212.9 130.8 -190.5 137.2 -172C143.5 -153.5 146.7 -139 162.6 -129.7C178.6 -120.4 207.4 -116.4 212.6 -102.4C217.9 -88.4 199.6 -64.6 200.8 -45.8C202 -27.1 222.7 -13.6 243.4 0L0 0Z" fill="#FBAE3C"></path></g></svg>